<?xml version="1.0" encoding="UTF-8" standalone="no"?>
<!-- Created with Inkscape (http://www.inkscape.org/) -->

<svg
   xmlns:dc="http://purl.org/dc/elements/1.1/"
   xmlns:cc="http://creativecommons.org/ns#"
   xmlns:rdf="http://www.w3.org/1999/02/22-rdf-syntax-ns#"
   xmlns:svg="http://www.w3.org/2000/svg"
   xmlns="http://www.w3.org/2000/svg"
   xmlns:sodipodi="http://sodipodi.sourceforge.net/DTD/sodipodi-0.dtd"
   xmlns:inkscape="http://www.inkscape.org/namespaces/inkscape"
   width="210mm"
   height="297mm"
   viewBox="0 0 210 297"
   version="1.1"
   id="svg8"
   inkscape:version="0.92.1 r15371"
   sodipodi:docname="design.svg">
  <defs
     id="defs2" />
  <sodipodi:namedview
     id="base"
     pagecolor="#ffffff"
     bordercolor="#666666"
     borderopacity="1.0"
     inkscape:pageopacity="0.0"
     inkscape:pageshadow="2"
     inkscape:zoom="0.98994949"
     inkscape:cx="363.03634"
     inkscape:cy="797.26505"
     inkscape:document-units="mm"
     inkscape:current-layer="layer1"
     showgrid="false"
     inkscape:window-width="1920"
     inkscape:window-height="1001"
     inkscape:window-x="-9"
     inkscape:window-y="-9"
     inkscape:window-maximized="1" />
  <metadata
     id="metadata5">
    <rdf:RDF>
      <cc:Work
         rdf:about="">
        <dc:format>image/svg+xml</dc:format>
        <dc:type
           rdf:resource="http://purl.org/dc/dcmitype/StillImage" />
        <dc:title></dc:title>
      </cc:Work>
    </rdf:RDF>
  </metadata>
  <g
     inkscape:label="Layer 1"
     inkscape:groupmode="layer"
     id="layer1">
    <path
       inkscape:connector-curvature="0"
       id="path4495"
       style="font-style:normal;font-variant:normal;font-weight:normal;font-stretch:normal;font-size:medium;line-height:1.25;font-family:'Liberation Mono';-inkscape-font-specification:'Liberation Mono';text-align:center;letter-spacing:0px;word-spacing:0px;text-anchor:middle;fill:#000000;fill-opacity:1;stroke:#000000;stroke-width:1.7320143;stroke-miterlimit:4;stroke-dasharray:none;stroke-opacity:1"
       d="M 51.689321,98.970435 V 77.600289 h 3.025721 v 18.89885 h 10.645469 v 2.471296 z" />
    <path
       inkscape:connector-curvature="0"
       id="path4497"
       style="font-style:normal;font-variant:normal;font-weight:normal;font-stretch:normal;font-size:medium;line-height:1.25;font-family:'Liberation Mono';-inkscape-font-specification:'Liberation Mono';text-align:center;letter-spacing:0px;word-spacing:0px;text-anchor:middle;fill:#000000;fill-opacity:1;stroke:#000000;stroke-width:1.7320143;stroke-miterlimit:4;stroke-dasharray:none;stroke-opacity:1"
       d="m 114.8719,90.320968 q 0,8.966287 -6.20987,8.966287 -3.897,0 -5.24353,-2.914844 h -0.0791 q 0.0635,0.126606 0.0635,2.629691 v 6.700928 h -2.8673 V 85.378443 q 0,-2.693053 -0.095,-3.548484 h 2.77226 q 0.0153,0.06346 0.0475,0.475246 0.0316,0.396034 0.0635,1.188101 0.0475,0.776219 0.0475,1.156434 h 0.0635 q 0.79207,-1.663378 2.01187,-2.407899 1.23561,-0.760399 3.21581,-0.760399 3.1366,0 4.67322,2.17029 1.53665,2.154411 1.53665,6.669236 z m -2.94651,0 q 0,-3.58015 -0.96634,-5.100951 -0.96631,-1.536618 -3.04153,-1.536618 -2.39209,0 -3.45346,1.742559 -1.06137,1.726711 -1.06137,5.243528 0,3.37424 1.06137,4.942556 1.06137,1.568285 3.42175,1.568285 2.10693,0 3.07324,-1.599982 0.96634,-1.599983 0.96634,-5.259377 z" />
    <path
       inkscape:connector-curvature="0"
       id="path4499"
       style="font-style:normal;font-variant:normal;font-weight:normal;font-stretch:normal;font-size:medium;line-height:1.25;font-family:'Liberation Mono';-inkscape-font-specification:'Liberation Mono';text-align:center;letter-spacing:0px;word-spacing:0px;text-anchor:middle;fill:#000000;fill-opacity:1;stroke:#000000;stroke-width:1.7320143;stroke-miterlimit:4;stroke-dasharray:none;stroke-opacity:1"
       d="m 120.53681,91.002155 q 0,2.883145 1.26732,4.514825 1.28316,1.63168 3.50097,1.63168 1.63164,0 2.85144,-0.697036 1.23565,-0.712854 1.64753,-1.932652 l 2.50297,0.712855 q -0.69704,1.964349 -2.56633,3.009871 -1.85347,1.045557 -4.43561,1.045557 -3.73861,0 -5.75047,-2.328687 -2.01187,-2.328716 -2.01187,-6.669267 0,-4.229671 1.96435,-6.495023 1.98017,-2.28117 5.70292,-2.28117 3.72276,0 5.63957,2.265352 1.91683,2.265321 1.91683,6.843511 v 0.380184 z m 4.70492,-7.38212 q -2.12277,0 -3.35839,1.394041 -1.23564,1.378223 -1.31486,3.801971 h 9.25144 q -0.44357,-5.196012 -4.57819,-5.196012 z" />
    <path
       inkscape:connector-curvature="0"
       id="path4501"
       style="font-style:normal;font-variant:normal;font-weight:normal;font-stretch:normal;font-size:medium;line-height:1.25;font-family:'Liberation Mono';-inkscape-font-specification:'Liberation Mono';text-align:center;letter-spacing:0px;word-spacing:0px;text-anchor:middle;fill:#000000;fill-opacity:1;stroke:#000000;stroke-width:1.7320143;stroke-miterlimit:4;stroke-dasharray:none;stroke-opacity:1"
       d="m 147.99433,84.42795 q -1.77426,-0.301033 -3.35839,-0.301033 -2.55047,0 -4.11879,1.916834 -1.56832,1.916803 -1.56832,4.879161 v 8.047487 h -2.85144 V 87.865524 q 0,-1.20395 -0.22195,-2.83563 -0.206,-1.63168 -0.60197,-3.199965 h 2.70887 q 0.63367,2.186108 0.7604,3.960365 h 0.0791 q 0.79207,-1.774257 1.55246,-2.598021 0.76041,-0.839583 1.80593,-1.251464 1.04553,-0.427731 2.55048,-0.427731 1.64753,0 3.26336,0.269151 z" />
    <g
       aria-label="∞"
       style="font-style:normal;font-weight:normal;font-size:50.30145264px;line-height:1.25;font-family:sans-serif;text-align:center;letter-spacing:0px;word-spacing:0px;text-anchor:middle;fill:#000000;fill-opacity:1;stroke:#000000;stroke-width:1.7320143;stroke-miterlimit:4;stroke-dasharray:none;stroke-opacity:1"
       id="text4491">
      <path
         d="m 84.180391,96.980543 q -0.761399,-0.884205 -1.964901,-2.947351 -1.645604,2.947351 -3.094718,4.249098 -1.817533,1.57192 -4.642078,1.57192 -3.315769,0 -5.501721,-2.480687 -2.308758,-2.603493 -2.308758,-6.901713 0,-4.126291 2.308758,-6.926274 2.063145,-2.480687 5.550844,-2.480687 1.792972,0 3.119279,0.736838 1.54736,0.810521 2.603494,2.210513 0.98245,1.252624 1.9649,2.947351 1.645604,-2.947351 3.094718,-4.249098 1.817533,-1.57192 4.642078,-1.57192 3.315769,0 5.501721,2.480687 2.308758,2.603493 2.308758,6.901713 0,4.126291 -2.308758,6.926274 -2.063145,2.480687 -5.550844,2.480687 -1.792972,0 -3.119279,-0.736838 -1.326308,-0.663154 -2.603493,-2.210513 z m -9.97187,-0.343857 q 4.052607,0 6.484171,-5.894702 -3.119279,-6.435049 -6.484171,-6.435049 -2.456126,0 -3.70875,1.76841 -1.350869,1.891217 -1.350869,4.396465 0,2.750861 1.350869,4.445588 1.37543,1.719288 3.70875,1.719288 z M 90.22246,84.356057 q -3.659628,0 -6.484172,5.894702 3.094718,6.435049 6.484172,6.435049 2.456125,0 3.708749,-1.76841 1.350869,-1.891217 1.350869,-4.396465 0,-2.750861 -1.350869,-4.445588 -1.37543,-1.719288 -3.708749,-1.719288 z"
         style="stroke:#000000;stroke-width:1.7320143;stroke-miterlimit:4;stroke-dasharray:none;stroke-opacity:1"
         id="path4577" />
    </g>
    <g
       aria-label="∞"
       style="font-style:normal;font-weight:normal;font-size:50.30145264px;line-height:1.25;font-family:sans-serif;text-align:center;letter-spacing:0px;word-spacing:0px;text-anchor:middle;fill:#000000;fill-opacity:1;stroke:#000000;stroke-width:1.7320143;stroke-miterlimit:4;stroke-dasharray:none;stroke-opacity:1"
       id="text4491-5" />
    <path
       inkscape:connector-curvature="0"
       id="path4495-6"
       style="font-style:normal;font-variant:normal;font-weight:normal;font-stretch:normal;font-size:medium;line-height:1.25;font-family:'Liberation Mono';-inkscape-font-specification:'Liberation Mono';text-align:center;letter-spacing:0px;word-spacing:0px;text-anchor:middle;fill:#000000;fill-opacity:1;stroke:#000000;stroke-width:1.7320143;stroke-miterlimit:4;stroke-dasharray:none;stroke-opacity:1"
       d="m 61.082563,156.71907 v -21.37015 h 3.025721 v 18.89885 h 10.645469 v 2.4713 z" />
    <path
       inkscape:connector-curvature="0"
       id="path4497-7"
       style="font-style:normal;font-variant:normal;font-weight:normal;font-stretch:normal;font-size:medium;line-height:1.25;font-family:'Liberation Mono';-inkscape-font-specification:'Liberation Mono';text-align:center;letter-spacing:0px;word-spacing:0px;text-anchor:middle;fill:#000000;fill-opacity:1;stroke:#000000;stroke-width:1.7320143;stroke-miterlimit:4;stroke-dasharray:none;stroke-opacity:1"
       d="m 124.26514,148.0696 q 0,8.96629 -6.20987,8.96629 -3.897,0 -5.24353,-2.91484 h -0.0791 q 0.0635,0.1266 0.0635,2.62969 v 6.70092 h -2.8673 v -20.32458 q 0,-2.69306 -0.095,-3.54849 h 2.77227 q 0.0153,0.0635 0.0475,0.47525 0.0316,0.39603 0.0635,1.1881 0.0475,0.77622 0.0475,1.15643 h 0.0635 q 0.79206,-1.66337 2.01187,-2.40789 1.2356,-0.7604 3.2158,-0.7604 3.1366,0 4.67322,2.17029 1.53665,2.15441 1.53665,6.66923 z m -2.94651,0 q 0,-3.58015 -0.96634,-5.10095 -0.96631,-1.53662 -3.04153,-1.53662 -2.39209,0 -3.45346,1.74256 -1.06137,1.72671 -1.06137,5.24353 0,3.37424 1.06137,4.94256 1.06137,1.56828 3.42175,1.56828 2.10693,0 3.07324,-1.59998 0.96634,-1.59998 0.96634,-5.25938 z" />
    <path
       inkscape:connector-curvature="0"
       id="path4499-5"
       style="font-style:normal;font-variant:normal;font-weight:normal;font-stretch:normal;font-size:medium;line-height:1.25;font-family:'Liberation Mono';-inkscape-font-specification:'Liberation Mono';text-align:center;letter-spacing:0px;word-spacing:0px;text-anchor:middle;fill:#000000;fill-opacity:1;stroke:#000000;stroke-width:1.7320143;stroke-miterlimit:4;stroke-dasharray:none;stroke-opacity:1"
       d="m 129.93005,148.75079 q 0,2.88314 1.26732,4.51482 1.28316,1.63168 3.50097,1.63168 1.63164,0 2.85144,-0.69703 1.23565,-0.71286 1.64753,-1.93265 l 2.50297,0.71285 q -0.69704,1.96435 -2.56633,3.00987 -1.85347,1.04556 -4.43561,1.04556 -3.73861,0 -5.75047,-2.32869 -2.01187,-2.32871 -2.01187,-6.66926 0,-4.22968 1.96435,-6.49503 1.98017,-2.28117 5.70292,-2.28117 3.72276,0 5.63957,2.26535 1.91683,2.26533 1.91683,6.84352 v 0.38018 z m 4.70492,-7.38212 q -2.12277,0 -3.35839,1.39404 -1.23564,1.37822 -1.31486,3.80197 h 9.25144 q -0.44357,-5.19601 -4.57819,-5.19601 z" />
    <path
       inkscape:connector-curvature="0"
       id="path4501-1"
       style="font-style:normal;font-variant:normal;font-weight:normal;font-stretch:normal;font-size:medium;line-height:1.25;font-family:'Liberation Mono';-inkscape-font-specification:'Liberation Mono';text-align:center;letter-spacing:0px;word-spacing:0px;text-anchor:middle;fill:#000000;fill-opacity:1;stroke:#000000;stroke-width:1.7320143;stroke-miterlimit:4;stroke-dasharray:none;stroke-opacity:1"
       d="m 157.38757,142.17658 q -1.77426,-0.30103 -3.35839,-0.30103 -2.55047,0 -4.11879,1.91684 -1.56832,1.9168 -1.56832,4.87916 v 8.04748 h -2.85144 v -11.10487 q 0,-1.20395 -0.22195,-2.83563 -0.206,-1.63168 -0.60197,-3.19997 h 2.70887 q 0.63367,2.18611 0.7604,3.96037 h 0.0791 q 0.79207,-1.77426 1.55246,-2.59802 0.76041,-0.83959 1.80593,-1.25147 1.04553,-0.42773 2.55048,-0.42773 1.64753,0 3.26336,0.26915 z" />
    <g
       transform="translate(9.3932408,57.748636)"
       aria-label="∞"
       style="font-style:normal;font-weight:normal;font-size:50.30145264px;line-height:1.25;font-family:sans-serif;text-align:center;letter-spacing:0px;word-spacing:0px;text-anchor:middle;fill:#721178;fill-opacity:1;stroke:#721178;stroke-width:1.7320143;stroke-miterlimit:4;stroke-dasharray:none;stroke-opacity:1"
       id="text4491-50">
      <path
         inkscape:connector-curvature="0"
         d="m 84.180391,96.980543 q -0.761399,-0.884205 -1.964901,-2.947351 -1.645604,2.947351 -3.094718,4.249098 -1.817533,1.57192 -4.642078,1.57192 -3.315769,0 -5.501721,-2.480687 -2.308758,-2.603493 -2.308758,-6.901713 0,-4.126291 2.308758,-6.926274 2.063145,-2.480687 5.550844,-2.480687 1.792972,0 3.119279,0.736838 1.54736,0.810521 2.603494,2.210513 0.98245,1.252624 1.9649,2.947351 1.645604,-2.947351 3.094718,-4.249098 1.817533,-1.57192 4.642078,-1.57192 3.315769,0 5.501721,2.480687 2.308758,2.603493 2.308758,6.901713 0,4.126291 -2.308758,6.926274 -2.063145,2.480687 -5.550844,2.480687 -1.792972,0 -3.119279,-0.736838 -1.326308,-0.663154 -2.603493,-2.210513 z m -9.97187,-0.343857 q 4.052607,0 6.484171,-5.894702 -3.119279,-6.435049 -6.484171,-6.435049 -2.456126,0 -3.70875,1.76841 -1.350869,1.891217 -1.350869,4.396465 0,2.750861 1.350869,4.445588 1.37543,1.719288 3.70875,1.719288 z M 90.22246,84.356057 q -3.659628,0 -6.484172,5.894702 3.094718,6.435049 6.484172,6.435049 2.456125,0 3.708749,-1.76841 1.350869,-1.891217 1.350869,-4.396465 0,-2.750861 -1.350869,-4.445588 -1.37543,-1.719288 -3.708749,-1.719288 z"
         style="stroke:#721178;stroke-width:1.7320143;stroke-miterlimit:4;stroke-dasharray:none;stroke-opacity:1;fill:#721178;fill-opacity:1"
         id="path4577-1" />
    </g>
  </g>
</svg>
