<?xml version="1.0" encoding="UTF-8" standalone="no"?>
<!-- Created with Inkscape (http://www.inkscape.org/) -->

<svg
   xmlns:dc="http://purl.org/dc/elements/1.1/"
   xmlns:cc="http://creativecommons.org/ns#"
   xmlns:rdf="http://www.w3.org/1999/02/22-rdf-syntax-ns#"
   xmlns:svg="http://www.w3.org/2000/svg"
   xmlns="http://www.w3.org/2000/svg"
   xmlns:sodipodi="http://sodipodi.sourceforge.net/DTD/sodipodi-0.dtd"
   xmlns:inkscape="http://www.inkscape.org/namespaces/inkscape"
   width="30mm"
   height="30mm"
   viewBox="0 0 30 30"
   version="1.1"
   id="svg8"
   inkscape:version="0.92.1 r15371"
   sodipodi:docname="icon.svg">
  <defs
     id="defs2" />
  <sodipodi:namedview
     id="base"
     pagecolor="#ffffff"
     bordercolor="#666666"
     borderopacity="1.0"
     inkscape:pageopacity="0.0"
     inkscape:pageshadow="2"
     inkscape:zoom="1.4"
     inkscape:cx="-81.802639"
     inkscape:cy="31.427077"
     inkscape:document-units="mm"
     inkscape:current-layer="layer1"
     showgrid="false"
     inkscape:window-width="1920"
     inkscape:window-height="1001"
     inkscape:window-x="-9"
     inkscape:window-y="-9"
     inkscape:window-maximized="1"
     inkscape:snap-page="true"
     inkscape:snap-bbox="true"
     inkscape:bbox-nodes="true" />
  <metadata
     id="metadata5">
    <rdf:RDF>
      <cc:Work
         rdf:about="">
        <dc:format>image/svg+xml</dc:format>
        <dc:type
           rdf:resource="http://purl.org/dc/dcmitype/StillImage" />
        <dc:title></dc:title>
      </cc:Work>
    </rdf:RDF>
  </metadata>
  <g
     inkscape:label="Layer 1"
     inkscape:groupmode="layer"
     id="layer1"
     transform="translate(0,-267)">
    <g
       aria-label="∞"
       style="font-style:normal;font-weight:normal;font-size:50.30145264px;line-height:1.25;font-family:sans-serif;text-align:center;letter-spacing:0px;word-spacing:0px;text-anchor:middle;fill:#000000;fill-opacity:1;stroke:#000000;stroke-width:1.7320143;stroke-miterlimit:4;stroke-dasharray:none;stroke-opacity:1"
       id="text4491-5" />
    <g
       transform="matrix(0.91389394,0,0,0.91389394,-60.136238,199.29591)"
       aria-label="∞"
       style="font-style:normal;font-weight:normal;font-size:50.30145264px;line-height:1.25;font-family:sans-serif;text-align:center;letter-spacing:0px;word-spacing:0px;text-anchor:middle;fill:#721178;fill-opacity:1;stroke:#721178;stroke-width:1.7320143;stroke-miterlimit:4;stroke-dasharray:none;stroke-opacity:1"
       id="text4491-50">
      <path
         inkscape:connector-curvature="0"
         d="m 84.180391,96.980543 q -0.761399,-0.884205 -1.964901,-2.947351 -1.645604,2.947351 -3.094718,4.249098 -1.817533,1.57192 -4.642078,1.57192 -3.315769,0 -5.501721,-2.480687 -2.308758,-2.603493 -2.308758,-6.901713 0,-4.126291 2.308758,-6.926274 2.063145,-2.480687 5.550844,-2.480687 1.792972,0 3.119279,0.736838 1.54736,0.810521 2.603494,2.210513 0.98245,1.252624 1.9649,2.947351 1.645604,-2.947351 3.094718,-4.249098 1.817533,-1.57192 4.642078,-1.57192 3.315769,0 5.501721,2.480687 2.308758,2.603493 2.308758,6.901713 0,4.126291 -2.308758,6.926274 -2.063145,2.480687 -5.550844,2.480687 -1.792972,0 -3.119279,-0.736838 -1.326308,-0.663154 -2.603493,-2.210513 z m -9.97187,-0.343857 q 4.052607,0 6.484171,-5.894702 -3.119279,-6.435049 -6.484171,-6.435049 -2.456126,0 -3.70875,1.76841 -1.350869,1.891217 -1.350869,4.396465 0,2.750861 1.350869,4.445588 1.37543,1.719288 3.70875,1.719288 z M 90.22246,84.356057 q -3.659628,0 -6.484172,5.894702 3.094718,6.435049 6.484172,6.435049 2.456125,0 3.708749,-1.76841 1.350869,-1.891217 1.350869,-4.396465 0,-2.750861 -1.350869,-4.445588 -1.37543,-1.719288 -3.708749,-1.719288 z"
         style="fill:#721178;fill-opacity:1;stroke:#721178;stroke-width:1.7320143;stroke-miterlimit:4;stroke-dasharray:none;stroke-opacity:1"
         id="path4577-1" />
    </g>
  </g>
</svg>
