<svg version="1" xmlns="http://www.w3.org/2000/svg" width="933.333" height="933.333" viewBox="0 0 700.000000 700.000000"><path d="M170.5 131.1c-4.9.4-10.3 1-12 1.2-1.6.3-5 .8-7.5 1.2-2.5.4-6.7 1.3-9.5 2.1-2.7.8-5 1.4-5 1.3 0-.4-7.5 1.8-14.5 4.4-46.5 17.1-83.5 56.6-105.2 112.2-2.2 5.5-4.1 10.9-4.3 11.9-.3 1.1-1.6 5.8-2.9 10.5C3.1 298.4.5 319.6.5 349.5c.1 25.7.9 35.4 4.7 56 12 64.9 49.3 118 101.3 144.3 25.7 13 49 18 81.7 17.6 10.6-.1 20.4-.4 21.8-.8 1.4-.3 4.6-.7 7.1-1 2.6-.3 5.3-.8 6-1.1.8-.2 2.6-.6 4-.9 15-2.5 37.1-11.5 52.4-21.4 20.7-13.2 40.9-35.3 63.1-68.8 4.2-6.3 7.7-11.4 7.9-11.4.2 0 1.8 2.4 3.6 5.2 10.3 16.9 28.4 39.5 42.9 53.6 7.5 7.3 19.5 17.1 28 22.9 10 6.7 34.3 18.2 41.7 19.7 1 .1 2.5.6 3.3.9.8.3 4.4 1.1 8 1.7 3.6.7 7.4 1.4 8.5 1.6 11.7 2.3 37.1 2.3 56-.1 62.7-7.9 114.3-52.4 140.9-121.3 3.6-9.4 10.1-31.9 11-38.2.3-1.9 1-5.8 1.5-8.5.5-2.8 1.2-7.3 1.5-10 .4-2.8.9-7.9 1.3-11.5.9-8.5.9-45.1 0-56-.7-7.7-2.2-19.3-3.2-24.5-.2-1.1-.9-4.7-1.5-8-1.4-7.4-6.4-25.1-9.1-32.5-15.3-40.8-41.3-74.9-73.9-96.7-13.4-9-31.8-17.4-47.5-21.8-6.5-1.8-7.1-2-16-3.6-3.3-.5-7.1-1.2-8.5-1.5-1.4-.3-10.8-.7-21-.8-16.2-.3-30 .7-40 2.8-1.4.2-4.7.9-7.5 1.5-10.2 2.1-26.6 8-36.5 13-6.3 3.3-19 10.9-20 12.1-.3.3-2.5 2.1-5 4-9.1 6.9-25.8 24.7-36.2 38.7-8.7 11.8-21.8 31.2-21.8 32.5 0 2.3-2.3-.2-8.6-9.5-28.8-42.6-50.7-63.6-83.7-80.5-26.2-13.4-54.8-18.6-88.2-16.1zm23 107.5c27.1 6.7 55.9 34.7 84.4 81.8 2.2 3.7 4.1 7 4.1 7.3 0 .3.8 1.7 1.9 3.1 1 1.5 4.4 7.7 7.6 13.9l5.8 11.1-3.9 8.4C259.9 436 218.1 467.9 166 461.3c-3-.3-5.7-.7-6-.8-7.9-1.8-12.3-3.2-16-4.8-16.5-7.5-31.3-22.3-40.4-40.5-2.9-5.8-8.8-21.2-8.1-21.2.2 0-.2-1.8-1-4s-1.4-4.3-1.4-4.5c.1-.3-.5-3.8-1.2-7.8-1.4-7.7-1.9-40.7-.7-49.2 4.9-36.7 24.4-70.6 47.6-82.8 15.8-8.3 38.2-11.3 54.7-7.1zm340.5 0c18.8 2 38.6 12.7 49.6 26.6 1.6 2.1 3.9 5 5.1 6.5 3.8 4.7 11.8 21.3 14.6 30.3 3.1 10.1 4.6 17.2 5.5 26 .9 8.4.9 37 0 43.5-5.1 37.1-24.3 70.6-47.6 82.8-11.3 5.9-24.5 8.9-39.2 8.9-12.1 0-24.9-3.4-32.2-8.4-1.4-1-3-1.8-3.5-1.8-.4 0-4.4-2.7-8.8-6-23.2-17.5-46.6-48.8-69.9-93.4l-4.6-8.9 5.7-10.6c17.1-32.1 37.9-59.8 55-73.3 3-2.4 6.7-5.3 8.1-6.6 5.4-4.6 24.4-13.1 32.7-14.6 12.8-2.4 15.8-2.5 29.5-1z"/></svg>